<?xml version="1.0" encoding="UTF-8"?>
<svg id="uuid-b3d66771-f13c-4f09-88e4-cc4462f824af" data-name="Layer 2" xmlns="http://www.w3.org/2000/svg" xmlns:xlink="http://www.w3.org/1999/xlink" viewBox="0 0 930.05 633.22">
  <defs>
    <linearGradient id="uuid-085345a2-41f5-4495-945f-cf9737004fc0" x1="768.85" y1="1141.93" x2="688.4" y2="1633.39" gradientTransform="translate(0 -1004)" gradientUnits="userSpaceOnUse">
      <stop offset="0" stop-color="#5fe67b"/>
      <stop offset=".03" stop-color="#5bc96b"/>
      <stop offset=".08" stop-color="#62c672"/>
      <stop offset=".78" stop-color="#05998e"/>
      <stop offset="1" stop-color="#009492"/>
    </linearGradient>
    <linearGradient id="uuid-d7b61228-d66f-46b6-881c-0061eaa525f7" x1="481.58" y1="579.52" x2="850.66" y2="270.46" gradientUnits="userSpaceOnUse">
      <stop offset=".02" stop-color="#000"/>
      <stop offset=".05" stop-color="#0d261d"/>
      <stop offset=".09" stop-color="#194a38"/>
      <stop offset=".13" stop-color="#236a50"/>
      <stop offset=".17" stop-color="#2c8363"/>
      <stop offset=".22" stop-color="#329672"/>
      <stop offset=".28" stop-color="#37a47d"/>
      <stop offset=".35" stop-color="#3aac83"/>
      <stop offset=".48" stop-color="#3baf85"/>
      <stop offset=".62" stop-color="#17927d"/>
      <stop offset=".92" stop-color="#013226"/>
    </linearGradient>
    <linearGradient id="uuid-4b071979-c80b-40d7-b865-de9247fe3247" x1="859.79" y1="1015.16" x2="912.45" y2="1631.92" gradientTransform="translate(0 -1004)" gradientUnits="userSpaceOnUse">
      <stop offset="0" stop-color="#88e177"/>
      <stop offset=".88" stop-color="#018557"/>
      <stop offset="1" stop-color="#048b5c"/>
    </linearGradient>
    <linearGradient id="uuid-3f4897a1-532c-4b73-b37d-14d27667cc7f" x1="201.89" y1="1087.84" x2="274.51" y2="1574.45" gradientTransform="translate(0 -1004)" gradientUnits="userSpaceOnUse">
      <stop offset="0" stop-color="#5ed582"/>
      <stop offset="1" stop-color="#009293"/>
    </linearGradient>
    <linearGradient id="uuid-88091c98-96d1-4940-a2dc-bf3549baf57a" x1="124.37" y1="1314.56" x2="-60.3" y2="1588.05" gradientTransform="translate(0 -1004)" gradientUnits="userSpaceOnUse">
      <stop offset="0" stop-color="#2e8d5c"/>
      <stop offset=".28" stop-color="#37ac82"/>
      <stop offset=".73" stop-color="#03948e"/>
      <stop offset="1" stop-color="#029c9b"/>
    </linearGradient>
  </defs>
  <g id="uuid-4101f596-fd38-4e81-ba24-1ab04a415a06" data-name="Layer 1">
    <g>
      <path d="M94.54,298.95c-.01.47-.05,1.09-.25,1.32-2.55,2.99-2.32,7.77-2.22,11.85l.7,27.8.35,292.17-90.03.15c-1.21,0-1.81-.48-2.13-.99,29.36-.55,59.05-.64,89.08-.29-.01-1.18,1.01-.89,1.36-.96s.67-.89.67-1.87l-.02-136.94c-.34-50.34-.67-100.68-.99-151l.1-33.92,1.25-6.73c.1-.52,1.91-.69,2.12-.59Z" style="fill: #023f36;"/>
      <path d="M.88,566.23c-.43-.39-.84-.72-.84-2.22v-289.64c0-1.5.4-1.84.92-2.23l-.08,294.09Z" style="fill: #339267;"/>
      <path d="M671.07,631.22v-1.03s102.01-.03,102.01-.03l-.02-432.97c.28-.87.6-.86.98,0l.04,433.88-103,.15Z" style="fill: #018b8b;"/>
      <polygon points="774.03 197.2 773.05 197.2 773.65 131.83 774.03 197.2" style="fill: #45b781;"/>
      <path d="M671.05,630.19c-.27.03-1.08-.02-1-1.23v-304.77c.28-.87.62-.86,1,0v306Z" style="fill: #02938d;"/>
      <path d="M671.05,324.19h-1s-.03-103.99-.03-103.99c0-1.82.42-2.15,1.03-3.02v107.01Z" style="fill: #47c08b;"/>
      <path d="M843.37,73.02c.05.51-.06,1.57-1.2,1.1.28,68.07.57,136.19.88,204.36l-1,.7c.86,37.42.87,76.58-.02,114.02l.09,237.8h86.83s.1-184.81.1-184.81c.28-.87.61-.86.99,0l-.02,185.82-48.99.42c-7.06.06-13.95,1.99-20.95-.47l-16.06.2c-2.29.03-3.98-1.47-3.98-4.27V74.66c.86-1.76,2.69-1.14,3.32-1.64Z" style="fill: #06301b;"/>
      <path d="M930.05,446.2h-.99s-.02-428.78-.02-428.78c0-1.62.41-1.9,1-1.63v430.41Z" style="fill: #018054;"/>
      <path d="M843.06,75.19c.98,5.4,1.04,10.98,1,16.51-.14,24.31-.43,49.54-1,73.49.87,21.91.85,45.87,0,68,.33,9.19.67,18.52,1,28v52c-.28.87-.62.86-1,0-.33-11.19-.67-22.53-1-34.01l.12-205.06.88,1.07Z" style="fill: #5cc172;"/>
      <path d="M843.05,313.19c.86,16.65.85,35.03,0,52v26.95c0,.69-.6,1.11-1.01,1.06l.02-114.02c.39-.06.99.36.99,1.06v32.94Z" style="fill: #269a60;"/>
      <path d="M845.07,92.2c-.38,3.98-.71,7.97-1.01,11.99v61c-.29.87-.62.86-1,0v-90c1.94,4.61,1.99,11.18,2.01,17.01Z" style="fill: #8adc7d;"/>
      <path d="M928.96,631.02h-86.83s86.83,0,86.83,0Z" style="fill: #018054;"/>
      <path d="M844.05,233.19c-.28.87-.62.86-1,0v-68s1,0,1,0v68Z" style="fill: #75d179;"/>
      <path d="M843.05,365.19v-52s1,0,1,0v50.92c0,.73-.61,1.14-1,1.08Z" style="fill: #4cb76f;"/>
      <path d="M844.05,261.19c-.4.06-.99-.36-.99-1.05v-26.95s.99,0,.99,0v28Z" style="fill: #6ac977;"/>
      <path d="M844.06,104.19l-.05-10.08c0-1.07.39-1.81,1.06-1.91l.04,10.07c0,1.07-.38,1.81-1.05,1.92Z" style="fill: #86d26e;"/>
      <g>
        <path d="M773.65,131.83c.22,21.92.02,43.71-.6,65.37.6,144.17.78,288.6.52,433.28-34.31.48-68.48.38-102.52-.29-.88-100.59-.88-205.51,0-306-.87-34.6-.9-71.84,0-107.01l-.33-1.24c5.9-4.86,11.71-9.8,17.41-14.82l19.71-15.31,65.8-53.99Z" style="fill: url(#uuid-085345a2-41f5-4495-945f-cf9737004fc0);"/>
        <path d="M671.63,213.74c-2.44,1.87-3.78,4.36-3.78,7.04-2.44-.94-3.38,1.06-4.92,2.3l-7.24,5.83-13.86,10.94c-.91,1.57-2.25,2.65-3.98,3.2l-14.12,12.01-107.92,89.84-74.68,61.36-12.12,9.92-14.17,11.8c-1.62,1.35-2.69,2.68-4.8,2.21-.67-.84-1.08-.73-1.22.33l13.28,10.61c2.93,2.34,5.32,4.38,8.32,6.69l19.2,14.77,14.8,12.23c5.82,4.82,14.37,9.96,19.73,16.7l28.18-23.19,91.93-76.77,14.76-12.52,47.17-39.42c.59-.56,1.03-.98,1.35-1.28.26-.08.57-.12.99-.12l.24,16.67c-1.34,4.63.18,7.06.19,11.56l.11,263.58c.22,1.64,1.33,1.2,2,1.2.85-.4.86-.75-.01-1.03-.34-102.1-.67-204.1-1-306,.31-35.6.65-71.27,1-107.01,5.02-7.24,13.88-9.68,17.08-16.06l-16.5,12.62Z" style="fill: url(#uuid-d7b61228-d66f-46b6-881c-0061eaa525f7);"/>
        <path d="M930.04,15.79c-.33,143.41-.66,286.89-.98,430.41.82,60.16.89,124.34-.1,184.81h-86.83s-.63-.32-.63-.32c-.57-78.02-.76-158.68-.45-236.78,0-.24.44-.47.99-.7.34-9.37.68-18.71,1.01-28.01.34-17.36.68-34.69,1-52-.59-16.88-.92-33.99-.99-51.32l.99-.68c-.82-9.11-.81-19.01,0-28-.86-21.92-.86-45.87,0-68-.86-19.6-.85-41.18,0-61,.37-3.98.7-7.98,1.01-11.99l-1.01-.83c.15-5.44-.19-10.83-1-16.18-.44.37-.74.01-.88-1.07l1.2-1.1,11.45-9.17,62.37-54.44,7.47-5.89c1.4-1.1,2.15-4.44,5.39-3.3v15.55Z" style="fill: url(#uuid-4b071979-c80b-40d7-b865-de9247fe3247);"/>
        <path d="M178.78,245.32c3.47,2.56,6.89,5.28,10.24,8.15l86.14,69.45c3.19,2.64,6.16,5.4,8.89,8.28,2.15,1.09,4.21,2.38,6.17,3.89l96.48,77.22,17.09,14c2.56.89,4.23,2.29,5.03,4.2l3.7.4,64.95,51.36c4.48,2.66,6.7,5.74,6.68,9.24l-8.22,7.57-20.65,17.34-18.51,15.39-25.07,22.03c-1.65,1.45-3.13,1.16-4.66.53-3.21-2.98-6.65-5.67-10.3-8.06l-8.78-6.84-4.97-4.31-.92-.87-4.08-3.13-40.11-32.74-28.58-23.49-33.49-27.44-22.06-18.17-82.4-67.39-68.61-55.37c-2.94-2.37-6.07-3.67-8.45-6.29-1.33-.33-1.06-.88.25-1.32l-2.51.65c-.62-.02-10-6.26-8.04-8.31-8.53-7.23-17.17-14.34-25.93-21.32-3.01,2.42-7.76-1.28-5.91-4.68l-5.06-3.2-2.16.46c-6.91-6.78-14.3-12.96-22.17-18.51-1.54-1.12-1.95-2.05-.66-3.73l-8.13-6.17c-1.91,2.56-4.86.18-3.98-2.62l-6.15-6.32c-1.48.26-2.47-1.15-2.97-4.23l.18-.83-.53-1.21-.23-109.98c10.39,5.74,18.56,12.61,27.6,19.36l41.22,30.79c6.03,4.51,12,8.49,17.92,13.2l26.15,20.79,45.01,35.89,20.59,16.34Z" style="fill: url(#uuid-3f4897a1-532c-4b73-b37d-14d27667cc7f);"/>
        <path d="M3.85,225.2l6.15,6.32c1.29.59,2.4,2.12,3.98,2.62l8.13,6.17c2.47,3.72,7.14,5.19,10.52,8.32l9.31,8.65c1.92,1.79,3.88,2.88,5.16,4.81l5.06,3.2c1.12,2.19,3.63,3.85,5.91,4.68,8.77,6.99,17.42,14.1,25.93,21.32l10.55,7.66c-1.83,1.78-2.79,4.24-2.89,7.37l.27,33.21-.85.66c.32,50.35.65,100.68.99,151,.57,45.48.75,91.22.54,137.24.09,2.18-.49,3.22-2.55,2.53-30.02.2-59.9-.05-89.64-.75l.48-63.98c-.69-96.81-.77-197.24.08-294.09l-.41-36.05.32-15.13c1.36.91,2.48,2.66,2.97,4.23Z" style="fill: url(#uuid-88091c98-96d1-4940-a2dc-bf3549baf57a);"/>
      </g>
      <path d="M1.05,220.14c-.22.06-1.05-.28-1.05-1.16l.29-110.02.76,111.18Z" style="fill: #41a36d;"/>
      <path d="M90.04,630.96l-89.08.29c.14-.34.02-.99-.56-1.04l89.64.75Z" style="fill: #00908f;"/>
      <path d="M189.02,253.47c-4.55-1.08-6.91-5.51-10.24-8.15,2.56-.25,3.68,1.97,5.54,3.6,1.75,1.54,4.22,2.22,4.7,4.55Z" style="fill: #0e4829;"/>
      <path d="M285.01,331.23l-.96-.02c-3.17-2.56-7.03-4.49-8.89-8.28,3.53,2.18,8.01,5.29,9.85,8.31Z" style="fill: #0d674b;"/>
      <path d="M407.05,554.38c-4.11-1.7-6.9-5.41-10.3-8.06,3.17.68,8.27,4.92,10.3,8.06Z" style="fill: #016163;"/>
      <path d="M290.23,335.1c-2.62-.14-4.27-2.35-6.17-3.89l.96.02c2.72.12,3.59,2.57,5.22,3.87Z" style="fill: #107155;"/>
      <path d="M410.05,430.18c-.28-.06-.78.09-1.22.33l-5.03-4.2c2.56.33,4.88,1.8,6.25,3.86Z" style="fill: #023328;"/>
      <path d="M387.97,539.47c-1.62-1.26-4.2-2.03-4.97-4.31,2.35.18,4.08,2.04,4.97,4.31Z" style="fill: #005c57;"/>
      <path d="M641.83,239.85c-.36,2.06-1.92,3.32-3.98,3.2,1.33-1.13,2.63-2.14,3.98-3.2Z" style="fill: #082c1a;"/>
      <path d="M382.07,534.29c-2.39.45-2.88-2.15-4.08-3.13,1.91,0,3.45,1.43,4.08,3.13Z" style="fill: #005c57;"/>
      <path d="M84,291.3l-21.96-17.02c-1.72-1.33-3.24-2.47-3.97-4.3,1.63.59,2.86,1.46,4.44,2.76l17.55,14.42c1.67,1.37,3.32,2.34,3.94,4.14Z" style="fill: #3da071;"/>
      <path d="M22.1,240.32c-3.26-1.13-6.3-3.25-8.13-6.17,3.16,1.01,6.32,3.45,8.13,6.17Z" style="fill: #41a36d;"/>
      <path d="M10,231.52c-2.83-1.29-5.17-3.22-6.15-6.32,2.56,1.55,4.72,3.66,6.15,6.32Z" style="fill: #41a36d;"/>
      <path d="M52.15,265.29c-1.98-.4-3.96-1.54-5.06-3.2,2.42-.26,4,1.12,5.06,3.2Z" style="fill: #3da071;"/>
      <path d="M92.06,491.19c-.37.03-1.01-.29-1.01-1.18l.02-149.81c.36-.03.99.29.99,1.18v149.81Z" style="fill: #2b825c;"/>
    </g>
  </g>
</svg>
