<?xml version="1.0" encoding="UTF-8"?>
<svg id="uuid-76a31d88-16c6-4264-9b47-b98d25ca402d" data-name="Layer 2" xmlns="http://www.w3.org/2000/svg" xmlns:xlink="http://www.w3.org/1999/xlink" viewBox="0 0 1907.88 493.99">
  <defs>
    <linearGradient id="uuid-310fe070-e247-4fbe-88c9-9df2da07ca43" x1="601.42" y1="1111.94" x2="538.46" y2="1496.52" gradientTransform="translate(0 -1004)" gradientUnits="userSpaceOnUse">
      <stop offset="0" stop-color="#5fe67b"/>
      <stop offset=".03" stop-color="#5bc96b"/>
      <stop offset=".08" stop-color="#62c672"/>
      <stop offset=".78" stop-color="#05998e"/>
      <stop offset="1" stop-color="#009492"/>
    </linearGradient>
    <linearGradient id="uuid-fdd15921-1857-4585-980d-3eb0f5771079" x1="376.62" y1="453.49" x2="665.44" y2="211.64" gradientUnits="userSpaceOnUse">
      <stop offset=".02" stop-color="#000"/>
      <stop offset=".05" stop-color="#0d261d"/>
      <stop offset=".09" stop-color="#194a38"/>
      <stop offset=".13" stop-color="#236a50"/>
      <stop offset=".17" stop-color="#2c8363"/>
      <stop offset=".22" stop-color="#329672"/>
      <stop offset=".28" stop-color="#37a47d"/>
      <stop offset=".35" stop-color="#3aac83"/>
      <stop offset=".48" stop-color="#3baf85"/>
      <stop offset=".62" stop-color="#17927d"/>
      <stop offset=".92" stop-color="#013226"/>
    </linearGradient>
    <linearGradient id="uuid-5ee2e2f9-ab14-406d-8e99-e41747eb1b97" x1="672.58" y1="1012.74" x2="713.79" y2="1495.37" gradientTransform="translate(0 -1004)" gradientUnits="userSpaceOnUse">
      <stop offset="0" stop-color="#88e177"/>
      <stop offset=".88" stop-color="#018557"/>
      <stop offset="1" stop-color="#048b5c"/>
    </linearGradient>
    <linearGradient id="uuid-e63a21b2-6e12-49ea-a96c-3bc25593d78c" x1="157.75" y1="1069.61" x2="214.58" y2="1450.39" gradientTransform="translate(0 -1004)" gradientUnits="userSpaceOnUse">
      <stop offset="0" stop-color="#5ed582"/>
      <stop offset="1" stop-color="#009293"/>
    </linearGradient>
    <linearGradient id="uuid-ddf10885-865b-43c8-a09a-d98c00c52a34" x1="97.09" y1="1247.02" x2="-47.42" y2="1461.04" gradientTransform="translate(0 -1004)" gradientUnits="userSpaceOnUse">
      <stop offset="0" stop-color="#2e8d5c"/>
      <stop offset=".28" stop-color="#37ac82"/>
      <stop offset=".73" stop-color="#03948e"/>
      <stop offset="1" stop-color="#029c9b"/>
    </linearGradient>
  </defs>
  <g id="uuid-dbdc5204-b39a-4b1c-91e3-52b89a1a3d78" data-name="Layer 1">
    <g>
      <path d="M605.17,103.16c.17,17.15.02,34.2-.47,51.15.47,112.82.61,225.84.41,339.05-26.85.37-53.59.3-80.22-.22-.69-78.71-.69-160.82,0-239.45-.68-27.08-.71-56.21,0-83.74l-.26-.97c4.62-3.8,9.16-7.67,13.63-11.6l15.43-11.98,51.49-42.25Z" style="fill: url(#uuid-310fe070-e247-4fbe-88c9-9df2da07ca43);"/>
      <path d="M525.34,167.26c-1.91,1.46-2.96,3.41-2.95,5.51-1.91-.74-2.65.83-3.85,1.8l-5.67,4.56-10.85,8.56c-.71,1.23-1.76,2.07-3.11,2.5l-11.05,9.4-84.45,70.3-58.44,48.01-9.49,7.76-11.09,9.23c-1.27,1.06-2.11,2.1-3.76,1.73-.53-.65-.84-.57-.96.26l10.39,8.3c2.29,1.83,4.17,3.43,6.51,5.23l15.02,11.56,11.58,9.57c4.56,3.77,11.24,7.8,15.44,13.07l22.05-18.15,71.94-60.07,11.55-9.79,36.91-30.85c.46-.44.81-.77,1.06-1,.2-.06.45-.1.77-.09l.19,13.04c-1.05,3.62.14,5.53.15,9.05l.08,206.26c.18,1.28,1.04.94,1.57.94.67-.32.68-.59-.01-.81-.26-79.89-.53-159.71-.78-239.45.25-27.86.51-55.77.78-83.74,3.93-5.67,10.86-7.58,13.37-12.56l-12.91,9.87Z" style="fill: url(#uuid-fdd15921-1857-4585-980d-3eb0f5771079);"/>
      <path d="M727.56,12.35c-.26,112.23-.52,224.5-.77,336.81.64,47.08.7,97.3-.08,144.62h-67.95s-.5-.25-.5-.25c-.45-61.06-.6-124.17-.35-185.29,0-.18.34-.37.78-.55.27-7.33.53-14.64.79-21.92.27-13.58.53-27.15.78-40.69-.46-13.21-.72-26.6-.78-40.16l.78-.53c-.65-7.13-.63-14.87,0-21.91-.68-17.15-.67-35.89,0-53.21-.68-15.34-.67-32.22,0-47.73.29-3.12.55-6.24.79-9.38l-.79-.65c.12-4.25-.15-8.47-.79-12.66-.35.29-.58.01-.69-.83l.94-.86,8.96-7.17,48.8-42.6,5.85-4.61c1.09-.86,1.68-3.48,4.22-2.58v12.17Z" style="fill: url(#uuid-5ee2e2f9-ab14-406d-8e99-e41747eb1b97);"/>
      <path d="M139.67,191.97c2.72,2.01,5.39,4.13,8.01,6.38l67.41,54.35c2.5,2.06,4.82,4.22,6.96,6.48,1.68.85,3.29,1.86,4.83,3.05l75.5,60.43,13.37,10.95c2,.7,3.31,1.79,3.93,3.28l2.9.31,50.83,40.19c3.5,2.08,5.24,4.49,5.22,7.23l-6.43,5.93-16.16,13.57-14.48,12.04-19.62,17.24c-1.29,1.13-2.45.91-3.65.41-2.51-2.33-5.2-4.43-8.06-6.31l-6.87-5.35-3.89-3.38-.72-.68-3.19-2.45-31.39-25.62-22.37-18.38-26.21-21.47-17.26-14.21-64.48-52.73-53.69-43.33c-2.3-1.86-4.75-2.87-6.61-4.92-1.04-.26-.83-.69.19-1.03l-1.96.51c-.49-.01-7.83-4.9-6.29-6.5-6.68-5.66-13.44-11.22-20.29-16.69-2.35,1.89-6.08-1-4.63-3.66l-3.96-2.5-1.69.36c-5.41-5.31-11.19-10.14-17.35-14.49-1.21-.88-1.53-1.6-.52-2.92l-6.36-4.83c-1.49,2-3.8.14-3.11-2.05l-4.82-4.95c-1.16.2-1.94-.9-2.33-3.31l.14-.65-.41-.95-.18-86.06c8.13,4.49,14.52,9.87,21.6,15.15l32.25,24.09c4.72,3.53,9.39,6.64,14.02,10.33l20.47,16.27,35.22,28.08,16.11,12.79Z" style="fill: url(#uuid-e63a21b2-6e12-49ea-a96c-3bc25593d78c);"/>
      <path d="M2.78,176.22l4.82,4.95c1.01.46,1.88,1.66,3.11,2.05l6.36,4.83c1.93,2.91,5.59,4.06,8.23,6.51l7.28,6.77c1.5,1.4,3.03,2.25,4.04,3.76l3.96,2.5c.88,1.71,2.84,3.02,4.63,3.66,6.87,5.47,13.63,11.03,20.29,16.69l8.25,5.99c-1.43,1.4-2.18,3.32-2.26,5.77l.21,25.99-.66.52c.25,39.4.51,78.79.77,118.16.45,35.59.59,71.39.42,107.39.07,1.71-.38,2.52-2,1.98-23.49.16-46.87-.04-70.14-.59l.37-50.06c-.54-75.75-.6-154.35.06-230.13l-.32-28.21.25-11.84c1.06.72,1.94,2.08,2.33,3.31Z" style="fill: url(#uuid-ddf10885-865b-43c8-a09a-d98c00c52a34);"/>
    </g>
    <g>
      <path d="M1005.84,322.65v-17.99c0-4.49.78-9.15-.72-13.21l-27.2,47.93-10,.14-27.54-48.73-.58,60.96-13.44.38c-1.11.03-2.75-1.8-2.74-3.12l.13-57.89.02-6.08-.15-19.13c.83-.63,2.77-1.56,3.71-1.56l15.53.02,6.97,13.14,10.86,19.64,12.33,21.34,21.99-38.44,8.54-15.63,18.04.25.04,87.12-15.59.32-.46-6.83.26-22.61Z" style="fill: #fff;"/>
      <path d="M1357.02,325.28l-23.12-.05-.07,26.68-15.96.08-.56-5.98-.05-12.73-.05-21.21.07-17.37-.08-14.36c-.02-4.21.38-8.08-.34-12.46-.19-1.15.94-3.55,2.21-3.55l42.29.14,7.86,1.74c6.77,1.5,12.76,5.12,16.66,10.74,8.06,11.61,7.31,27.3-2.29,37.68-2.97,3.22-6.87,4.89-10.91,7.54l20.52,29.6-17.68.35-3.62-4.6-14.85-22.23ZM1372.54,286.01c-2.12-3.93-6.85-7.17-11.49-7.23l-27.17-.32v32.71s26.58-.31,26.58-.31c5.52-.06,10.21-4.83,12.18-8.42,2.96-5.4,2.9-10.88-.09-16.43Z" style="fill: #fff;"/>
      <path d="M1547.31,314.58l-29.54.23v23.01s50.11.1,50.11.1l-.2,14.03-63.53.07c-1.51,0-3-1.48-3-3.06v-84.47s66.22-.07,66.22-.07l-.11,13.98-49.58.09.1,22.17,43.68-.1.06,13.45-14.19.56Z" style="fill: #fff;"/>
      <path d="M1176.36,331.99l-28.88.12-9.17,19.74-13.89.19c-.59,0-2.03-.32-2.14-.76-.14-.58.07-1.78.37-2.44l10.37-23.02,7.57-17.08,20.34-44.29,16.79.05,38.86,87.28-17.31.3-8.26-19.43-14.65-.65ZM1184.97,318.31l-15.84-36.48-15.76,36.64,31.6-.16Z" style="fill: #fff;"/>
      <path d="M1907.55,337.9l.33,11.31c.03,1.1-1.73,2.79-3.06,2.79l-59.36-.06v-87.39s16.98.05,16.98.05l.06,73.21,45.06.08Z" style="fill: #fff;"/>
      <polygon points="1739.62 337.89 1739.77 351.93 1678.88 351.97 1678.82 264.81 1695.2 264.5 1695.24 337.83 1739.62 337.89" style="fill: #fff;"/>
    </g>
  </g>
</svg>
