<?xml version="1.0" encoding="UTF-8"?>
<svg id="uuid-4717d265-97c5-4a62-a48d-36d28a9d25e2" xmlns="http://www.w3.org/2000/svg" xmlns:xlink="http://www.w3.org/1999/xlink" version="1.1" viewBox="0 0 1322.5 861.5">
  <defs>
    <style>
      .st0 {
        fill: #6ac977;
      }

      .st1 {
        fill: #3da071;
      }

      .st2 {
        fill: #4cb76f;
      }

      .st3 {
        fill: #018054;
      }

      .st4 {
        fill: url(#linear-gradient2);
      }

      .st5 {
        fill: url(#linear-gradient1);
      }

      .st6 {
        fill: url(#linear-gradient3);
      }

      .st7 {
        fill: url(#linear-gradient4);
      }

      .st8 {
        fill: #107155;
      }

      .st9 {
        fill: #75d179;
      }

      .st10 {
        fill: #023f36;
      }

      .st11 {
        fill: #016163;
      }

      .st12 {
        fill: #8adc7d;
      }

      .st13 {
        fill: url(#linear-gradient);
      }

      .st14 {
        fill: #5cc172;
      }

      .st15 {
        fill: #47c08b;
      }

      .st16 {
        fill: #00908f;
      }

      .st17 {
        fill: #2b825c;
      }

      .st18 {
        fill: #0e4829;
      }

      .st19 {
        fill: #45b781;
      }

      .st20 {
        fill: #018b8b;
      }

      .st21 {
        fill: #86d26e;
      }

      .st22 {
        fill: #06301b;
      }

      .st23 {
        fill: #082c1a;
      }

      .st24 {
        fill: #0d674b;
      }

      .st25 {
        fill: #023328;
      }

      .st26 {
        fill: #005c57;
      }

      .st27 {
        fill: #269a60;
      }

      .st28 {
        fill: #02938d;
      }

      .st29 {
        fill: #41a36d;
      }

      .st30 {
        fill: #339267;
      }
    </style>
    <linearGradient id="linear-gradient" x1="960.9" y1="-279.9" x2="880.4" y2="-771.4" gradientTransform="translate(0 -142) scale(1 -1)" gradientUnits="userSpaceOnUse">
      <stop offset="0" stop-color="#5fe67b"/>
      <stop offset="0" stop-color="#5bc96b"/>
      <stop offset="0" stop-color="#62c672"/>
      <stop offset=".8" stop-color="#05998e"/>
      <stop offset="1" stop-color="#009492"/>
    </linearGradient>
    <linearGradient id="linear-gradient1" x1="673.6" y1="282.5" x2="1042.7" y2="591.5" gradientTransform="translate(0 862) scale(1 -1)" gradientUnits="userSpaceOnUse">
      <stop offset="0" stop-color="#000"/>
      <stop offset="0" stop-color="#0d261d"/>
      <stop offset="0" stop-color="#194a38"/>
      <stop offset=".1" stop-color="#236a50"/>
      <stop offset=".2" stop-color="#2c8363"/>
      <stop offset=".2" stop-color="#329672"/>
      <stop offset=".3" stop-color="#37a47d"/>
      <stop offset=".3" stop-color="#3aac83"/>
      <stop offset=".5" stop-color="#3baf85"/>
      <stop offset=".6" stop-color="#17927d"/>
      <stop offset=".9" stop-color="#013226"/>
    </linearGradient>
    <linearGradient id="linear-gradient2" x1="1051.8" y1="-153.2" x2="1104.5" y2="-769.9" gradientTransform="translate(0 -142) scale(1 -1)" gradientUnits="userSpaceOnUse">
      <stop offset="0" stop-color="#88e177"/>
      <stop offset=".9" stop-color="#018557"/>
      <stop offset="1" stop-color="#048b5c"/>
    </linearGradient>
    <linearGradient id="linear-gradient3" x1="393.9" y1="-225.8" x2="466.5" y2="-712.4" gradientTransform="translate(0 -142) scale(1 -1)" gradientUnits="userSpaceOnUse">
      <stop offset="0" stop-color="#5ed582"/>
      <stop offset="1" stop-color="#009293"/>
    </linearGradient>
    <linearGradient id="linear-gradient4" x1="316.4" y1="-452.6" x2="131.7" y2="-726.1" gradientTransform="translate(0 -142) scale(1 -1)" gradientUnits="userSpaceOnUse">
      <stop offset="0" stop-color="#2e8d5c"/>
      <stop offset=".3" stop-color="#37ac82"/>
      <stop offset=".7" stop-color="#03948e"/>
      <stop offset="1" stop-color="#029c9b"/>
    </linearGradient>
  </defs>
  <g id="uuid-496a35ed-defa-4a76-a447-824569737403">
    <g>
      <path class="st10" d="M286.6,299c0,.5,0,1.1-.2,1.3-2.5,3-2.3,7.8-2.2,11.9l.7,27.8.4,292.2-90,.2c-1.2,0-1.8-.5-2.1-1,29.4-.5,59.1-.6,89.1-.3,0-1.2,1-.9,1.4-1s.7-.9.7-1.9v-136.9c-.4-50.3-.7-100.7-1-151v-33.9c.1,0,1.4-6.7,1.4-6.7.1-.5,1.9-.7,2.1-.6h0Z"/>
      <path class="st30" d="M192.9,566.2c-.4-.4-.8-.7-.8-2.2v-289.6c0-1.5.4-1.8.9-2.2v294.1Z"/>
      <path class="st20" d="M863.1,631.2v-1h102s0-433,0-433c.3-.9.6-.9,1,0v433.9s-103,.2-103,.2h0Z"/>
      <polygon class="st19" points="966.1 197.2 965.1 197.2 965.7 131.8 966.1 197.2"/>
      <path class="st28" d="M863.1,630.2c-.3,0-1.1,0-1-1.2v-304.8c.3-.9.6-.9,1,0v306h0Z"/>
      <path class="st15" d="M863.1,324.2h-1v-104c0-1.8.4-2.1,1-3v107Z"/>
      <path class="st22" d="M1035.4,73c0,.5,0,1.6-1.2,1.1.3,68.1.6,136.2.9,204.4l-1,.7c.9,37.4.9,76.6,0,114v237.8h86.9v-184.8c.4-.9.7-.9,1.1,0v185.8s-49,.4-49,.4c-7.1,0-13.9,2-20.9-.5l-16.1.2c-2.3,0-4-1.5-4-4.3V74.7c.9-1.8,2.7-1.1,3.3-1.6h0Z"/>
      <path class="st3" d="M1122.1,446.2h-1V17.4c0-1.6.4-1.9,1-1.6v430.4h0Z"/>
      <path class="st14" d="M1035.1,75.2c1,5.4,1,11,1,16.5-.1,24.3-.4,49.5-1,73.5.9,21.9.8,45.9,0,68,.3,9.2.7,18.5,1,28v52c-.3.9-.6.9-1,0-.3-11.2-.7-22.5-1-34V74.1c.1,0,1,1.1,1,1.1Z"/>
      <path class="st27" d="M1035.1,313.2c.9,16.6.8,35,0,52v27c0,.7-.6,1.1-1,1.1v-114c.4,0,1,.4,1,1.1v32.9h0Z"/>
      <path class="st12" d="M1037.1,92.2c-.4,4-.7,8-1,12v61c-.3.9-.6.9-1,0v-90c1.9,4.6,2,11.2,2,17Z"/>
      <path class="st3" d="M1121,631h-86.8,86.8Z"/>
      <path class="st9" d="M1036.1,233.2c-.3.9-.6.9-1,0v-68h1v68Z"/>
      <path class="st2" d="M1035.1,365.2v-52h1v50.9c0,.7-.6,1.1-1,1.1h0Z"/>
      <path class="st0" d="M1036.1,261.2c-.4,0-1-.4-1-1v-26.9h1v28Z"/>
      <path class="st21" d="M1036.1,104.2v-10.1c0-1.1.3-1.8,1-1.9v10.1c0,1.1-.3,1.8-1,1.9Z"/>
      <g>
        <path class="st13" d="M965.7,131.8c.2,21.9,0,43.7-.6,65.4.6,144.2.8,288.6.5,433.3-34.3.5-68.5.4-102.5-.3-.9-100.6-.9-205.5,0-306-.9-34.6-.9-71.8,0-107l-.3-1.2c5.9-4.9,11.7-9.8,17.4-14.8l19.7-15.3,65.8-54h0Z"/>
        <path class="st5" d="M863.7,213.7c-2.4,1.9-3.8,4.4-3.8,7-2.4-.9-3.4,1.1-4.9,2.3l-7.2,5.8-13.9,10.9c-.9,1.6-2.2,2.6-4,3.2l-14.1,12-107.9,89.8-74.7,61.4-12.1,9.9-14.2,11.8c-1.6,1.4-2.7,2.7-4.8,2.2-.7-.8-1.1-.7-1.2.3l13.3,10.6c2.9,2.3,5.3,4.4,8.3,6.7l19.2,14.8,14.8,12.2c5.8,4.8,14.4,10,19.7,16.7l28.2-23.2,91.9-76.8,14.8-12.5,47.2-39.4c.6-.6,1-1,1.3-1.3.3,0,.6-.1,1-.1l.2,16.7c-1.3,4.6.2,7.1.2,11.6v263.6c.3,1.6,1.4,1.2,2.1,1.2.8-.4.9-.8,0-1-.3-102.1-.7-204.1-1-306,.3-35.6.7-71.3,1-107,5-7.2,13.9-9.7,17.1-16.1l-16.5,12.6h0Z"/>
        <path class="st4" d="M1122.1,15.8c-.3,143.4-.7,286.9-1,430.4.8,60.2.9,124.3,0,184.8h-86.8l-.6-.3c-.6-78-.8-158.7-.4-236.8,0-.2.4-.5,1-.7.3-9.4.7-18.7,1-28,.3-17.4.7-34.7,1-52-.6-16.9-.9-34-1-51.3l1-.7c-.8-9.1-.8-19,0-28-.9-21.9-.9-45.9,0-68-.9-19.6-.8-41.2,0-61,.4-4,.7-8,1-12l-1-.8c.2-5.4-.2-10.8-1-16.2-.4.4-.7,0-.9-1.1l1.2-1.1,11.4-9.2,62.4-54.4,7.5-5.9c1.4-1.1,2.2-4.4,5.4-3.3v15.6h0Z"/>
        <path class="st6" d="M370.8,245.3c3.5,2.6,6.9,5.3,10.2,8.1l86.1,69.4c3.2,2.6,6.2,5.4,8.9,8.3,2.1,1.1,4.2,2.4,6.2,3.9l96.5,77.2,17.1,14c2.6.9,4.2,2.3,5,4.2l3.7.4,65,51.4c4.5,2.7,6.7,5.7,6.7,9.2l-8.2,7.6-20.7,17.3-18.5,15.4-25.1,22c-1.7,1.5-3.1,1.2-4.7.5-3.2-3-6.7-5.7-10.3-8.1l-8.8-6.8-5-4.3-.9-.9-4.1-3.1-40.1-32.7-28.6-23.5-33.5-27.4-22.1-18.2-82.4-67.4-68.6-55.4c-2.9-2.4-6.1-3.7-8.5-6.3-1.3-.3-1.1-.9.2-1.3l-2.5.6c-.6,0-10-6.3-8-8.3-8.5-7.2-17.2-14.3-25.9-21.3-3,2.4-7.8-1.3-5.9-4.7l-5.1-3.2-2.2.5c-6.9-6.8-14.3-13-22.2-18.5-1.5-1.1-1.9-2.1-.7-3.7l-8.1-6.2c-1.9,2.6-4.9.2-4-2.6l-6.1-6.3c-1.5.3-2.5-1.1-3-4.2l.2-.8-.5-1.2-.2-110c10.4,5.7,18.6,12.6,27.6,19.4l41.2,30.8c6,4.5,12,8.5,17.9,13.2l26.1,20.8,45,35.9,20.6,16.3h0Z"/>
        <path class="st7" d="M195.9,225.2l6.1,6.3c1.3.6,2.4,2.1,4,2.6l8.1,6.2c2.5,3.7,7.1,5.2,10.5,8.3l9.3,8.6c1.9,1.8,3.9,2.9,5.2,4.8l5.1,3.2c1.1,2.2,3.6,3.9,5.9,4.7,8.8,7,17.4,14.1,25.9,21.3l10.5,7.7c-1.8,1.8-2.8,4.2-2.9,7.4l.3,33.2-.9.7c.3,50.4.6,100.7,1,151,.6,45.5.8,91.2.5,137.2,0,2.2-.5,3.2-2.5,2.5-30,.2-59.9,0-89.6-.8l.5-64c-.7-96.8-.8-197.2,0-294.1l-.4-36.1.3-15.1c1.4.9,2.5,2.7,3,4.2h0Z"/>
      </g>
      <path class="st29" d="M193.1,220.1c-.2,0-1.1-.3-1.1-1.2l.3-110,.8,111.2h0Z"/>
      <path class="st16" d="M282.1,631l-89.1.3c.1-.3,0-1-.6-1l89.6.8Z"/>
      <path class="st18" d="M381.1,253.5c-4.5-1.1-6.9-5.5-10.2-8.1,2.6-.2,3.7,2,5.5,3.6,1.8,1.5,4.2,2.2,4.7,4.6h0Z"/>
      <path class="st24" d="M477,331.2h-1c-3.2-2.6-7-4.5-8.9-8.3,3.5,2.2,8,5.3,9.9,8.3h0Z"/>
      <path class="st11" d="M599.1,554.4c-4.1-1.7-6.9-5.4-10.3-8.1,3.2.7,8.3,4.9,10.3,8.1Z"/>
      <path class="st8" d="M482.3,335.1c-2.6-.1-4.3-2.4-6.2-3.9h1c2.7.1,3.6,2.6,5.2,3.9h0Z"/>
      <path class="st25" d="M602.1,430.2c-.3,0-.8,0-1.2.3l-5-4.2c2.6.3,4.9,1.8,6.2,3.9h0Z"/>
      <path class="st26" d="M580,539.5c-1.6-1.3-4.2-2-5-4.3,2.3.2,4.1,2,5,4.3Z"/>
      <path class="st23" d="M833.9,239.9c-.4,2.1-1.9,3.3-4,3.2,1.3-1.1,2.6-2.1,4-3.2Z"/>
      <path class="st26" d="M574.1,534.3c-2.4.5-2.9-2.2-4.1-3.1,1.9,0,3.5,1.4,4.1,3.1Z"/>
      <path class="st1" d="M276,291.3l-22-17c-1.7-1.3-3.2-2.5-4-4.3,1.6.6,2.9,1.5,4.4,2.8l17.5,14.4c1.7,1.4,3.3,2.3,3.9,4.1h0Z"/>
      <path class="st29" d="M214.1,240.3c-3.3-1.1-6.3-3.2-8.1-6.2,3.2,1,6.3,3.4,8.1,6.2Z"/>
      <path class="st29" d="M202,231.5c-2.8-1.3-5.2-3.2-6.1-6.3,2.6,1.6,4.7,3.7,6.1,6.3Z"/>
      <path class="st1" d="M244.2,265.3c-2-.4-4-1.5-5.1-3.2,2.4-.3,4,1.1,5.1,3.2Z"/>
      <path class="st17" d="M284.1,491.2c-.4,0-1-.3-1-1.2v-149.8c.4,0,1,.3,1,1.2v149.8h0Z"/>
    </g>
    <g>
      <path d="M110.5,821.9v-24.2c0-6,1-12.3-1-17.7l-36.5,64.4-13.4.2-37-65.5-.8,81.9-18,.5c-1.5,0-3.7-2.4-3.7-4.2l.2-77.8v-8.2s-.2-25.7-.2-25.7c1.1-.8,3.7-2.1,5-2.1h20.9s9.4,17.7,9.4,17.7l14.6,26.4,16.6,28.7,29.5-51.7,11.5-21,24.2.3v117c0,0-20.9.4-20.9.4l-.6-9.2.3-30.4h0Z"/>
      <path d="M582.3,825.4h-31.1c0,0,0,35.8,0,35.8h-21.4c0,.1-.8-7.9-.8-7.9v-17.1c0,0-.1-28.5-.1-28.5v-23.3c0,0,0-19.3,0-19.3,0-5.7.5-10.9-.5-16.7-.2-1.5,1.3-4.8,3-4.8l56.8.2,10.6,2.3c9.1,2,17.2,6.9,22.4,14.4,10.8,15.6,9.8,36.7-3.1,50.6-4,4.3-9.2,6.6-14.7,10.1l27.6,39.8-23.8.5-4.9-6.2-20-29.9h0ZM603.2,772.7c-2.8-5.3-9.2-9.6-15.4-9.7l-36.5-.4v44s35.7-.4,35.7-.4c7.4,0,13.7-6.5,16.4-11.3,4-7.3,3.9-14.6-.1-22.1Z"/>
      <path d="M838,811l-39.7.3v30.9h67.3c0,.1-.3,19-.3,19h-85.4c-2,0-4-1.9-4-4v-113.5h89c0,0-.2,18.7-.2,18.7h-66.6c0,.1.1,29.9.1,29.9h58.7c0-.1,0,18,0,18l-19.1.8h0Z"/>
      <path d="M339.6,834.4l-38.8.2-12.3,26.5-18.7.3c-.8,0-2.7-.4-2.9-1-.2-.8,0-2.4.5-3.3l13.9-30.9,10.2-23,27.3-59.5h22.6c0,0,52.2,117.3,52.2,117.3l-23.2.4-11.1-26.1-19.7-.9h0ZM351.2,816l-21.3-49-21.2,49.2,42.5-.2h0Z"/>
      <path d="M1322,842.4l.4,15.2c0,1.5-2.3,3.8-4.1,3.8h-79.8v-117.5h22.8c0,0,0,98.4,0,98.4h60.5Z"/>
      <polygon points="1096.4 842.4 1096.6 861.2 1014.8 861.3 1014.7 744.2 1036.7 743.8 1036.8 842.3 1096.4 842.4"/>
    </g>
  </g>
</svg>
