<?xml version="1.0" encoding="UTF-8"?>
<svg id="uuid-76a31d88-16c6-4264-9b47-b98d25ca402d" xmlns="http://www.w3.org/2000/svg" xmlns:xlink="http://www.w3.org/1999/xlink" version="1.1" viewBox="0 0 1907.9 494">
  <defs>
    <style>
      .st0 {
        fill: url(#linear-gradient2);
      }

      .st1 {
        fill: url(#linear-gradient1);
      }

      .st2 {
        fill: url(#linear-gradient3);
      }

      .st3 {
        fill: url(#linear-gradient4);
      }

      .st4 {
        fill: url(#linear-gradient);
      }
    </style>
    <linearGradient id="linear-gradient" x1="601.4" y1="-615.9" x2="538.5" y2="-1000.5" gradientTransform="translate(0 -508) scale(1 -1)" gradientUnits="userSpaceOnUse">
      <stop offset="0" stop-color="#5fe67b"/>
      <stop offset="0" stop-color="#5bc96b"/>
      <stop offset="0" stop-color="#62c672"/>
      <stop offset=".8" stop-color="#05998e"/>
      <stop offset="1" stop-color="#009492"/>
    </linearGradient>
    <linearGradient id="linear-gradient1" x1="376.6" y1="42.5" x2="665.4" y2="284.4" gradientTransform="translate(0 496) scale(1 -1)" gradientUnits="userSpaceOnUse">
      <stop offset="0" stop-color="#000"/>
      <stop offset="0" stop-color="#0d261d"/>
      <stop offset="0" stop-color="#194a38"/>
      <stop offset=".1" stop-color="#236a50"/>
      <stop offset=".2" stop-color="#2c8363"/>
      <stop offset=".2" stop-color="#329672"/>
      <stop offset=".3" stop-color="#37a47d"/>
      <stop offset=".3" stop-color="#3aac83"/>
      <stop offset=".5" stop-color="#3baf85"/>
      <stop offset=".6" stop-color="#17927d"/>
      <stop offset=".9" stop-color="#013226"/>
    </linearGradient>
    <linearGradient id="linear-gradient2" x1="672.6" y1="-516.7" x2="713.8" y2="-999.4" gradientTransform="translate(0 -508) scale(1 -1)" gradientUnits="userSpaceOnUse">
      <stop offset="0" stop-color="#88e177"/>
      <stop offset=".9" stop-color="#018557"/>
      <stop offset="1" stop-color="#048b5c"/>
    </linearGradient>
    <linearGradient id="linear-gradient3" x1="157.7" y1="-573.6" x2="214.6" y2="-954.4" gradientTransform="translate(0 -508) scale(1 -1)" gradientUnits="userSpaceOnUse">
      <stop offset="0" stop-color="#5ed582"/>
      <stop offset="1" stop-color="#009293"/>
    </linearGradient>
    <linearGradient id="linear-gradient4" x1="97.1" y1="-751" x2="-47.4" y2="-965" gradientTransform="translate(0 -508) scale(1 -1)" gradientUnits="userSpaceOnUse">
      <stop offset="0" stop-color="#2e8d5c"/>
      <stop offset=".3" stop-color="#37ac82"/>
      <stop offset=".7" stop-color="#03948e"/>
      <stop offset="1" stop-color="#029c9b"/>
    </linearGradient>
  </defs>
  <g id="uuid-dbdc5204-b39a-4b1c-91e3-52b89a1a3d78">
    <g>
      <path class="st4" d="M605.2,103.2c.2,17.2,0,34.2-.5,51.1.5,112.8.6,225.8.4,339-26.8.4-53.6.3-80.2-.2-.7-78.7-.7-160.8,0-239.4-.7-27.1-.7-56.2,0-83.7l-.3-1c4.6-3.8,9.2-7.7,13.6-11.6l15.4-12,51.5-42.2h0Z"/>
      <path class="st1" d="M525.3,167.3c-1.9,1.5-3,3.4-3,5.5-1.9-.7-2.7.8-3.8,1.8l-5.7,4.6-10.9,8.6c-.7,1.2-1.8,2.1-3.1,2.5l-11,9.4-84.4,70.3-58.4,48-9.5,7.8-11.1,9.2c-1.3,1.1-2.1,2.1-3.8,1.7-.5-.6-.8-.6-1,.3l10.4,8.3c2.3,1.8,4.2,3.4,6.5,5.2l15,11.6,11.6,9.6c4.6,3.8,11.2,7.8,15.4,13.1l22-18.1,71.9-60.1,11.5-9.8,36.9-30.9c.5-.4.8-.8,1.1-1,.2,0,.5-.1.8,0l.2,13c-1,3.6.1,5.5.2,9v206.3c.3,1.3,1.1.9,1.7.9.7-.3.7-.6,0-.8-.3-79.9-.5-159.7-.8-239.4.2-27.9.5-55.8.8-83.7,3.9-5.7,10.9-7.6,13.4-12.6l-12.9,9.9h0Z"/>
      <path class="st0" d="M727.6,12.4c-.3,112.2-.5,224.5-.8,336.8.6,47.1.7,97.3,0,144.6h-68l-.5-.2c-.5-61.1-.6-124.2-.3-185.3,0-.2.3-.4.8-.5.3-7.3.5-14.6.8-21.9.3-13.6.5-27.1.8-40.7-.5-13.2-.7-26.6-.8-40.2l.8-.5c-.7-7.1-.6-14.9,0-21.9-.7-17.1-.7-35.9,0-53.2-.7-15.3-.7-32.2,0-47.7.3-3.1.5-6.2.8-9.4l-.8-.7c.1-4.2-.2-8.5-.8-12.7-.3.3-.6,0-.7-.8l.9-.9,9-7.2,48.8-42.6,5.8-4.6c1.1-.9,1.7-3.5,4.2-2.6v12.2h0Z"/>
      <path class="st2" d="M139.7,192c2.7,2,5.4,4.1,8,6.4l67.4,54.4c2.5,2.1,4.8,4.2,7,6.5,1.7.9,3.3,1.9,4.8,3l75.5,60.4,13.4,11c2,.7,3.3,1.8,3.9,3.3l2.9.3,50.8,40.2c3.5,2.1,5.2,4.5,5.2,7.2l-6.4,5.9-16.2,13.6-14.5,12-19.6,17.2c-1.3,1.1-2.5.9-3.6.4-2.5-2.3-5.2-4.4-8.1-6.3l-6.9-5.4-3.9-3.4-.7-.7-3.2-2.5-31.4-25.6-22.4-18.4-26.2-21.5-17.3-14.2-64.5-52.7-53.7-43.3c-2.3-1.9-4.8-2.9-6.6-4.9-1-.3-.8-.7.2-1l-2,.5c-.5,0-7.8-4.9-6.3-6.5-6.7-5.7-13.4-11.2-20.3-16.7-2.3,1.9-6.1-1-4.6-3.7l-4-2.5-1.7.4c-5.4-5.3-11.2-10.1-17.4-14.5-1.2-.9-1.5-1.6-.5-2.9l-6.4-4.8c-1.5,2-3.8.1-3.1-2.1l-4.8-4.9c-1.2.2-1.9-.9-2.3-3.3v-.6c.1,0-.3-.9-.3-.9L0,85.3c8.1,4.5,14.5,9.9,21.6,15.2l32.2,24.1c4.7,3.5,9.4,6.6,14,10.3l20.5,16.3,35.2,28.1,16.1,12.8h0Z"/>
      <path class="st3" d="M2.8,176.2l4.8,4.9c1,.5,1.9,1.7,3.1,2.1l6.4,4.8c1.9,2.9,5.6,4.1,8.2,6.5l7.3,6.8c1.5,1.4,3,2.2,4,3.8l4,2.5c.9,1.7,2.8,3,4.6,3.7,6.9,5.5,13.6,11,20.3,16.7l8.2,6c-1.4,1.4-2.2,3.3-2.3,5.8l.2,26-.7.5c.2,39.4.5,78.8.8,118.2.4,35.6.6,71.4.4,107.4,0,1.7-.4,2.5-2,2-23.5.2-46.9,0-70.1-.6l.4-50.1c-.5-75.8-.6-154.4,0-230.1l-.3-28.2.2-11.8c1.1.7,1.9,2.1,2.3,3.3h0Z"/>
    </g>
    <g>
      <path d="M1005.8,322.6v-18c0-4.5.8-9.1-.7-13.2l-27.2,47.9h-10c0,.1-27.5-48.6-27.5-48.6l-.6,61-13.4.4c-1.1,0-2.8-1.8-2.7-3.1v-57.9c.1,0,.2-6.1.2-6.1l-.2-19.1c.8-.6,2.8-1.6,3.7-1.6h15.5s7,13.2,7,13.2l10.9,19.6,12.3,21.3,22-38.4,8.5-15.6,18,.2v87.1s-15.6.3-15.6.3l-.5-6.8.3-22.6h0Z"/>
      <path d="M1357,325.3h-23.1s0,26.6,0,26.6h-16c0,0-.6-5.9-.6-5.9v-12.7c0,0-.1-21.2-.1-21.2v-17.4c0,0,0-14.4,0-14.4,0-4.2.4-8.1-.3-12.5-.2-1.1.9-3.5,2.2-3.5h42.3c0,.1,7.9,1.9,7.9,1.9,6.8,1.5,12.8,5.1,16.7,10.7,8.1,11.6,7.3,27.3-2.3,37.7-3,3.2-6.9,4.9-10.9,7.5l20.5,29.6-17.7.4-3.6-4.6-14.8-22.2h0ZM1372.5,286c-2.1-3.9-6.8-7.2-11.5-7.2l-27.2-.3v32.7l26.6-.3c5.5,0,10.2-4.8,12.2-8.4,3-5.4,2.9-10.9,0-16.4h0Z"/>
      <path d="M1547.3,314.6l-29.5.2v23h50.1c0,.1-.2,14.1-.2,14.1h-63.5c-1.5,0-3-1.4-3-3v-84.5h66.2c0,0-.1,13.9-.1,13.9h-49.6c0,0,0,22.3,0,22.3h43.7c0-.1,0,13.4,0,13.4l-14.2.6h0Z"/>
      <path d="M1176.4,332h-28.9c0,.1-9.2,19.9-9.2,19.9l-13.9.2c-.6,0-2-.3-2.1-.8-.1-.6,0-1.8.4-2.4l10.4-23,7.6-17.1,20.3-44.3h16.8s38.9,87.3,38.9,87.3l-17.3.3-8.3-19.4-14.7-.6h0ZM1185,318.3l-15.8-36.5-15.8,36.6,31.6-.2h0Z"/>
      <path d="M1907.6,337.9l.3,11.3c0,1.1-1.7,2.8-3.1,2.8h-59.4v-87.5h17s0,73.3,0,73.3h45.1c0,0,0,0,0,0Z"/>
      <polygon points="1739.6 337.9 1739.8 351.9 1678.9 352 1678.8 264.8 1695.2 264.5 1695.2 337.8 1739.6 337.99"/>
    </g>
  </g>
</svg>
